{
  "accessors": [
    {
      "bufferView": 0,
      "componentType": 5125,
      "count": 1830,
      "type": "SCALAR"
    },
    {
      "bufferView": 1,
      "componentType": 5126,
      "count": 503,
      "max": [
        7.99678325653076,
        1.71491718292236,
        11.1411304473877
      ],
      "min": [
        -7.82267189025879,
        -0.0149170160293579,
        -11.1411304473877
      ],
      "type": "VEC3"
    },
    {
      "bufferView": 2,
      "componentType": 5126,
      "count": 503,
      "type": "VEC3"
    },
    {
      "bufferView": 3,
      "componentType": 5126,
      "count": 503,
      "type": "VEC4"
    },
    {
      "bufferView": 4,
      "componentType": 5126,
      "count": 503,
      "type": "VEC2"
    }
  ],
  "asset": {
    "generator": "Adobe Substance 3D Painter 11.0.3",
    "version": "2.0"
  },
  "bufferViews": [
    {
      "buffer": 0,
      "byteLength": 7320,
      "target": 34963
    },
    {
      "buffer": 0,
      "byteLength": 6036,
      "byteOffset": 7320,
      "target": 34962
    },
    {
      "buffer": 0,
      "byteLength": 6036,
      "byteOffset": 13356,
      "target": 34962
    },
    {
      "buffer": 0,
      "byteLength": 8048,
      "byteOffset": 19392,
      "target": 34962
    },
    {
      "buffer": 0,
      "byteLength": 4024,
      "byteOffset": 27440,
      "target": 34962
    }
  ],
  "buffers": [
    {
      "byteLength": 31464,
      "uri": "Ooga_Booga.bin"
    }
  ],
  "images": [
    {
      "uri": "Oooga_Booga_baseColor_1001.png"
    },
    {
      "uri": "Oooga_Booga_occlusionRoughnessMetallic_1001.png"
    },
    {
      "uri": "Oooga_Booga_normal_1001.png"
    }
  ],
  "materials": [
    {
      "alphaMode": "OPAQUE",
      "name": "Oooga_Booga_1001",
      "normalTexture": {
        "index": 2
      },
      "occlusionTexture": {
        "index": 1
      },
      "pbrMetallicRoughness": {
        "baseColorTexture": {
          "index": 0
        },
        "metallicRoughnessTexture": {
          "index": 1
        }
      }
    }
  ],
  "meshes": [
    {
      "name": "HRLR Book 01.Shape",
      "primitives": [
        {
          "attributes": {
            "NORMAL": 2,
            "POSITION": 1,
            "TANGENT": 3,
            "TEXCOORD_0": 4
          },
          "indices": 0,
          "material": 0,
          "mode": 4
        }
      ]
    }
  ],
  "nodes": [
    {
      "children": [
        1
      ],
      "name": "RootNode",
      "scale": [
        0.00100000004749745,
        0.00100000004749745,
        0.00100000004749745
      ]
    },
    {
      "children": [
        2
      ],
      "name": "HRLR Book 01",
      "scale": [
        10.0,
        10.0,
        10.0
      ]
    },
    {
      "children": [
        3
      ],
      "name": "HRLR Book 01.Shape",
      "scale": [
        1.32747948169708,
        1.33649218082428,
        1.33289885520935
      ],
      "translation": [
        -2.22199940681458,
        0.0,
        0.0
      ]
    },
    {
      "mesh": 0,
      "name": "HRLR Book 01.Shape"
    }
  ],
  "samplers": [
    {
      "magFilter": 9729,
      "minFilter": 9985,
      "wrapS": 10497,
      "wrapT": 10497
    }
  ],
  "scene": 0,
  "scenes": [
    {
      "name": "Scene",
      "nodes": [
        0
      ]
    }
  ],
  "textures": [
    {
      "sampler": 0,
      "source": 0
    },
    {
      "sampler": 0,
      "source": 1
    },
    {
      "sampler": 0,
      "source": 2
    }
  ]
}